<?xml version="1.0" encoding="UTF-8" standalone="no"?>
<!-- Created with Inkscape (http://www.inkscape.org/) -->

<svg
   width="210.00011mm"
   height="28.234968mm"
   viewBox="0 0 210.00011 28.234968"
   version="1.1"
   id="svg1"
   sodipodi:docname="Muse_FAQ.svg"
   inkscape:version="1.4 (e7c3feb1, 2024-10-09)"
   xmlns:inkscape="http://www.inkscape.org/namespaces/inkscape"
   xmlns:sodipodi="http://sodipodi.sourceforge.net/DTD/sodipodi-0.dtd"
   xmlns="http://www.w3.org/2000/svg"
   xmlns:svg="http://www.w3.org/2000/svg">
  <sodipodi:namedview
     id="namedview1"
     pagecolor="#ffffff"
     bordercolor="#999999"
     borderopacity="1"
     inkscape:showpageshadow="2"
     inkscape:pageopacity="0"
     inkscape:pagecheckerboard="0"
     inkscape:deskcolor="#d1d1d1"
     inkscape:document-units="mm"
     inkscape:zoom="0.70710678"
     inkscape:cx="376.88791"
     inkscape:cy="24.748737"
     inkscape:window-width="1472"
     inkscape:window-height="792"
     inkscape:window-x="0"
     inkscape:window-y="38"
     inkscape:window-maximized="0"
     inkscape:current-layer="layer1" />
  <defs
     id="defs1" />
  <g
     inkscape:label="Layer 1"
     inkscape:groupmode="layer"
     id="layer1">
    <path
       id="path800"
       style="fill:#000000;stroke-width:1.86652;fill-opacity:0.5"
       d="M 0 -0.024804687 L 0 0.074930827 L 0 28.285095 L 210.0001 28.285095 L 210.0001 0.050126139 L 210.0001 -0.024804687 L 0 -0.024804687 z M 1.8913574 0.074930827 L 7.9266479 0.074930827 L 7.9266479 1.9089274 L 5.9169515 1.9089274 L 5.9169515 2.2107178 L 7.9266479 2.2107178 L 7.9266479 4.0757202 L 5.9169515 4.0757202 L 5.9169515 6.0848999 L 1.8913574 6.0848999 L 1.8913574 0.074930827 z M 10.340454 0.074930827 L 14.557768 0.074930827 C 14.845698 0.10207349 15.120671 0.17404984 15.373739 0.32194417 C 15.683536 0.49897117 15.9269 0.74233516 16.103927 1.0521322 C 16.284977 1.3619292 16.375745 1.6977226 16.375745 2.0598226 C 16.375745 2.5064136 16.245038 2.9067289 15.983521 3.2607829 C 15.722003 3.6108129 15.384033 3.8503383 14.969629 3.9790853 L 16.375745 6.0848999 L 12.350151 6.0848999 L 10.340454 6.0848999 L 10.340454 4.0757202 L 10.340454 2.0598226 L 10.340454 0.074930827 z M 18.789551 0.074930827 L 24.824841 0.074930827 L 24.824841 1.9089274 L 22.815145 1.9089274 L 22.815145 2.2107178 L 24.824841 2.2107178 L 24.824841 3.924825 L 22.815145 3.924825 L 22.815145 4.2260986 L 24.824841 4.2260986 L 24.824841 6.0848999 L 18.789551 6.0848999 L 18.789551 0.074930827 z M 30.006954 0.074930827 L 30.504598 0.074930827 C 30.82349 0.10132786 31.133485 0.16383355 31.427022 0.29145508 C 31.801193 0.44836508 32.122774 0.66164531 32.392338 0.93120931 C 32.661901 1.2007733 32.875182 1.5228708 33.032092 1.8970418 C 33.193026 2.2671888 33.273421 2.657132 33.273421 3.067513 C 33.273421 3.783667 33.046446 4.4196688 32.591809 4.9748901 L 30.467391 2.8561564 L 30.256034 3.067513 L 32.386654 5.1981323 L 33.273421 6.0848999 L 32.519462 6.0848999 L 31.01051 6.0848999 L 30.256034 6.0848999 C 29.845654 6.0848999 29.453533 6.00451 29.079362 5.843571 C 28.709215 5.6866613 28.389294 5.4733794 28.119731 5.2038167 C 27.850167 4.9342527 27.634709 4.6148491 27.473775 4.2447021 C 27.316865 3.870531 27.238647 3.477893 27.238647 3.067513 C 27.238647 2.657132 27.316867 2.2671888 27.473775 1.8970418 C 27.634709 1.5228708 27.850167 1.2007733 28.119731 0.93120931 C 28.389294 0.66164531 28.709215 0.44836508 29.079362 0.29145508 C 29.376129 0.16381305 29.687449 0.10131704 30.006954 0.074930827 z M 35.687744 0.074930827 L 41.722518 0.074930827 L 41.722518 0.80460205 L 41.722518 2.3130371 L 41.722518 3.067513 C 41.722518 3.477893 41.642118 3.870531 41.481189 4.2447021 C 41.324278 4.6148491 41.110998 4.9342527 40.841435 5.2038167 C 40.571871 5.4733794 40.25029 5.6866613 39.876119 5.843571 C 39.505972 6.004504 39.115512 6.0848999 38.705131 6.0848999 C 38.29475 6.0848999 37.902629 6.00451 37.528459 5.843571 C 37.158311 5.6866613 36.838391 5.4733794 36.568827 5.2038167 C 36.299263 4.9342527 36.083806 4.6148491 35.922872 4.2447021 C 35.765962 3.870531 35.687744 3.477893 35.687744 3.067513 L 35.687744 0.074930827 z M 44.136841 0.074930827 L 50.171615 0.074930827 L 50.171615 1.9089274 L 48.161918 1.9089274 L 48.161918 2.2107178 L 50.171615 2.2107178 L 50.171615 3.924825 L 48.161918 3.924825 L 48.161918 4.2260986 L 50.171615 4.2260986 L 50.171615 6.0848999 L 44.136841 6.0848999 L 44.136841 0.074930827 z M 52.585421 0.074930827 L 58.620711 0.074930827 L 58.620711 2.0598226 L 58.620711 4.0757202 L 58.620711 6.0848999 L 55.603324 4.0757202 L 55.603324 6.0848999 L 52.585421 6.0848999 L 52.585421 4.0757202 L 52.585421 2.0598226 L 52.585421 0.074930827 z M 61.034517 0.074930827 L 67.069808 0.074930827 L 67.069808 3.067513 L 65.060111 3.067513 L 65.060111 6.0848999 L 63.044214 6.0848999 L 63.044214 3.067513 L 61.034517 3.067513 L 61.034517 0.074930827 z M 69.483614 0.074930827 L 73.509208 0.074930827 L 73.509208 4.0757202 L 75.518905 4.0757202 L 75.518905 6.0848999 L 73.509208 6.0848999 L 71.493311 6.0848999 L 69.483614 6.0848999 L 69.483614 0.074930827 z M 77.932711 0.074930827 L 80.799202 0.074930827 L 80.799202 2.0598226 L 81.100993 2.0598226 L 81.100993 0.074930827 L 83.967485 0.074930827 L 83.967485 0.80460205 L 83.967485 2.3130371 L 83.967485 3.067513 C 83.967485 3.477893 83.887085 3.870531 83.726156 4.2447021 C 83.569245 4.6148491 83.355965 4.9342527 83.086401 5.2038167 C 82.816837 5.4733794 82.495256 5.6866613 82.121086 5.843571 C 81.750938 6.004504 81.360478 6.0848999 80.950098 6.0848999 L 77.932711 6.0848999 L 77.932711 3.2184082 L 79.942407 3.2184082 L 79.942407 2.9166178 L 77.932711 2.9166178 L 77.932711 0.074930827 z M 92.424333 0.074930827 L 92.921977 0.074930827 C 93.240734 0.10132786 93.550347 0.16383355 93.843884 0.29145508 C 94.218055 0.44836508 94.540153 0.66164531 94.809717 0.93120931 C 95.07928 1.2007733 95.29256 1.5228708 95.449471 1.8970418 C 95.610404 2.2671888 95.6908 2.657132 95.6908 3.067513 L 95.6908 6.0848999 L 92.824308 6.0848999 L 92.824308 3.067513 L 92.522518 3.067513 L 92.522518 6.0848999 L 89.656026 6.0848999 L 89.656026 3.067513 C 89.656026 2.657132 89.734246 2.2671888 89.891154 1.8970418 C 90.052087 1.5228708 90.267545 1.2007733 90.537109 0.93120931 C 90.806673 0.66164531 91.126593 0.44836508 91.496741 0.29145508 C 91.793507 0.16381305 92.104828 0.10131704 92.424333 0.074930827 z M 99.4854 0.074930827 L 104.1399 0.074930827 L 104.1399 3.067513 L 102.63094 3.067513 C 103.04534 3.067513 103.39971 3.2162704 103.69341 3.5139974 C 103.99114 3.8077014 104.1399 4.1620607 104.1399 4.5764648 C 104.1399 4.9908691 103.99114 5.3447125 103.69341 5.6384155 C 103.39971 5.9361432 103.04534 6.0848999 102.63094 6.0848999 C 102.60274 6.0848999 102.57481 6.0832155 102.54671 6.0792155 L 102.54671 6.0848999 L 98.104606 6.0848999 L 98.104606 3.067513 L 99.613558 3.067513 C 99.199158 3.067513 98.843133 2.9209328 98.545406 2.6272298 C 98.251699 2.3295018 98.104606 1.973482 98.104606 1.559078 C 98.104606 1.144674 98.251699 0.79031451 98.545406 0.49661051 C 98.810109 0.23190724 99.128478 0.1042729 99.4854 0.074930827 z M 106.5537 0.074930827 L 112.57246 0.074930827 L 110.5793 3.067513 L 112.58899 6.0848999 L 110.5793 6.0848999 L 108.5634 6.0848999 L 106.5537 6.0848999 L 106.5537 0.074930827 z M 115.0028 0.074930827 L 121.03809 0.074930827 L 121.03809 1.9089274 L 119.02839 1.9089274 L 119.02839 2.2107178 L 121.03809 2.2107178 L 121.03809 3.924825 L 119.02839 3.924825 L 119.02839 4.2260986 L 121.03809 4.2260986 L 121.03809 6.0848999 L 115.0028 6.0848999 L 115.0028 0.074930827 z M 123.4519 0.074930827 L 126.71785 0.074930827 C 127.03674 0.10132786 127.34673 0.16383355 127.64027 0.29145508 C 128.01444 0.44836508 128.33602 0.66164531 128.60559 0.93120931 C 128.87515 1.2007733 129.08843 1.5228708 129.24534 1.8970418 C 129.40627 2.2671888 129.48667 2.657132 129.48667 3.067513 C 129.48667 3.477893 129.40627 3.870531 129.24534 4.2447021 C 129.08843 4.6148491 128.87515 4.9342527 128.60559 5.2038167 C 128.33602 5.4733794 128.01444 5.6866613 127.64027 5.843571 C 127.27012 6.004504 126.87966 6.0848999 126.46928 6.0848999 L 123.4519 6.0848999 L 123.4519 3.067513 L 123.4519 0.074930827 z M 137.94352 0.074930827 L 138.44116 0.074930827 C 138.76005 0.10132786 139.07005 0.16383355 139.36359 0.29145508 C 139.73775 0.44836508 140.05934 0.66164531 140.3289 0.93120931 C 140.59846 1.2007733 140.81174 1.5228708 140.96866 1.8970418 C 141.12959 2.2671888 141.20999 2.657132 141.20999 3.067513 C 141.20999 3.783667 140.9825 4.4196688 140.52786 4.9748901 L 138.40396 2.8561564 L 138.1926 3.067513 L 140.3227 5.1981323 L 141.20999 6.0848999 L 140.45551 6.0848999 L 138.94707 6.0848999 L 138.1926 6.0848999 C 137.78221 6.0848999 137.39009 6.00451 137.01593 5.843571 C 136.64578 5.6866613 136.32586 5.4733794 136.05629 5.2038167 C 135.78673 4.9342527 135.57127 4.6148491 135.41034 4.2447021 C 135.25343 3.870531 135.17521 3.477893 135.17521 3.067513 C 135.17521 2.657132 135.25341 2.2671888 135.41034 1.8970418 C 135.57127 1.5228708 135.78673 1.2007733 136.05629 0.93120931 C 136.32586 0.66164531 136.64578 0.44836508 137.01593 0.29145508 C 137.31268 0.16381305 137.62401 0.10131704 137.94352 0.074930827 z M 143.62431 0.074930827 L 149.65908 0.074930827 L 149.65908 0.80460205 L 149.65908 2.3130371 L 149.65908 3.067513 C 149.65908 3.477893 149.57868 3.870531 149.41775 4.2447021 C 149.26084 4.6148491 149.04757 4.9342527 148.778 5.2038167 C 148.50844 5.4733794 148.18634 5.6866613 147.81217 5.843571 C 147.44202 6.004504 147.05208 6.0848999 146.6417 6.0848999 C 146.23132 6.0848999 145.83868 6.00451 145.46451 5.843571 C 145.09436 5.6866613 144.77495 5.4733794 144.50539 5.2038167 C 144.23582 4.9342527 144.02037 4.6148491 143.85944 4.2447021 C 143.70253 3.870531 143.62431 3.477893 143.62431 3.067513 L 143.62431 0.074930827 z M 152.07289 0.074930827 L 158.10818 0.074930827 L 158.10818 1.9089274 L 156.09848 1.9089274 L 156.09848 2.2107178 L 158.10818 2.2107178 L 158.10818 3.924825 L 156.09848 3.924825 L 156.09848 4.2260986 L 158.10818 4.2260986 L 158.10818 6.0848999 L 152.07289 6.0848999 L 152.07289 0.074930827 z M 161.90278 0.074930827 L 166.55728 0.074930827 L 166.55728 3.067513 L 165.04832 3.067513 C 165.46272 3.067513 165.81657 3.2162704 166.11027 3.5139974 C 166.408 3.8077014 166.55728 4.1620607 166.55728 4.5764648 C 166.55728 4.9908691 166.408 5.3447125 166.11027 5.6384155 C 165.81657 5.9361432 165.46272 6.0848999 165.04832 6.0848999 C 165.02012 6.0848999 164.99219 6.0832155 164.96409 6.0792155 L 164.96409 6.0848999 L 160.52198 6.0848999 L 160.52198 3.067513 L 162.03094 3.067513 C 161.61654 3.067513 161.26051 2.9209328 160.96278 2.6272298 C 160.66908 2.3295018 160.52198 1.973482 160.52198 1.559078 C 160.52198 1.144674 160.66908 0.79031451 160.96278 0.49661051 C 161.22746 0.23190724 161.54586 0.1042729 161.90278 0.074930827 z M 168.97108 0.074930827 L 175.00586 0.074930827 L 175.00586 3.067513 L 172.99668 3.067513 L 172.99668 6.0848999 L 170.98078 6.0848999 L 170.98078 3.067513 L 168.97108 3.067513 L 168.97108 0.074930827 z M 177.42018 0.074930827 L 183.45495 0.074930827 L 183.45495 2.9166178 L 181.44526 2.9166178 L 181.44526 3.2184082 L 183.45495 3.2184082 L 183.45495 6.0848999 L 177.42018 6.0848999 L 177.42018 3.2184082 L 179.42987 3.2184082 L 179.42987 2.9166178 L 177.42018 2.9166178 L 177.42018 0.074930827 z M 188.69236 0.074930827 L 189.08097 0.074930827 C 189.55163 0.10398797 189.99558 0.21785964 190.4013 0.45423584 C 190.86398 0.72379884 191.23037 1.0901918 191.49994 1.5528768 C 191.7695 2.0155608 191.90405 2.520339 191.90405 3.067513 C 191.90405 3.614687 191.7695 4.1199819 191.49994 4.582666 C 191.23037 5.0453503 190.86398 5.4112262 190.4013 5.6807902 C 189.93862 5.9503539 189.43384 6.0848999 188.88666 6.0848999 C 188.33949 6.0848999 187.83471 5.9503539 187.37203 5.6807902 C 186.90934 5.4112262 186.54294 5.0453503 186.27338 4.582666 C 186.00382 4.1199819 185.86927 3.614687 185.86927 3.067513 C 185.86927 2.520339 186.00382 2.0155608 186.27338 1.5528768 C 186.54294 1.0901918 186.90934 0.72379884 187.37203 0.45423584 C 187.77774 0.21785964 188.2217 0.10398797 188.69236 0.074930827 z M 193.62436 0.074930827 L 193.66156 0.074930827 L 196.64226 2.0593058 L 196.64226 0.074930827 L 199.65965 0.074930827 L 199.65965 2.0598226 L 199.65965 4.0757202 L 199.65965 6.0848999 L 196.64174 4.0757202 L 196.64174 6.0848999 L 193.62436 6.0848999 L 193.62436 4.0757202 L 193.62436 2.0598226 L 193.62436 0.074930827 z M 203.45373 0.074930827 L 208.10823 0.074930827 L 208.10823 3.067513 L 206.59979 3.067513 C 207.0142 3.067513 207.36804 3.2162704 207.66174 3.5139974 C 207.95947 3.8077014 208.10823 4.1620607 208.10823 4.5764648 C 208.10823 4.9908691 207.95947 5.3447125 207.66174 5.6384155 C 207.36804 5.9361432 207.0142 6.0848999 206.59979 6.0848999 C 206.57159 6.0848999 206.54324 6.0832155 206.51504 6.0792155 L 206.51504 6.0848999 L 202.07345 6.0848999 L 202.07345 3.067513 L 203.58241 3.067513 C 203.16801 3.067513 202.81146 2.9209328 202.51374 2.6272298 C 202.22003 2.3295018 202.07345 1.973482 202.07345 1.559078 C 202.07345 1.144674 202.22003 0.79031451 202.51374 0.49661051 C 202.77838 0.23200704 203.09689 0.10435049 203.45373 0.074930827 z M 5.1237183 9.4619548 C 5.534099 9.4619548 5.9240422 9.5423547 6.2941895 9.7032837 C 6.6683602 9.8601947 6.990458 10.073475 7.260022 10.343038 C 7.529586 10.612602 7.7428662 10.934183 7.8997762 11.308354 C 8.0607093 11.678501 8.1411051 12.068961 8.1411051 12.479342 C 8.1411051 13.195497 7.9136135 13.830981 7.4589762 14.386202 L 5.3345581 12.267985 L 5.1237183 12.479342 L 7.2538208 14.609961 L 8.1411051 15.496729 L 7.3866292 15.496729 L 5.8776774 15.496729 L 5.1237183 15.496729 C 4.7133376 15.496729 4.3206997 15.416329 3.9465291 15.2554 C 3.5763824 15.09849 3.2564618 14.885209 2.9868978 14.615645 C 2.7173338 14.346082 2.5023924 14.026161 2.3414591 13.656014 C 2.1845481 13.281843 2.1058146 12.889723 2.1058146 12.479342 C 2.1058146 12.068961 2.1845486 11.678501 2.3414591 11.308354 C 2.5023924 10.934183 2.7173338 10.612602 2.9868978 10.343038 C 3.2564618 10.073475 3.5763824 9.8601947 3.9465291 9.7032837 C 4.3206997 9.5423497 4.7133376 9.4619548 5.1237183 9.4619548 z M 10.554911 9.4619548 L 13.42192 9.4619548 L 13.42192 12.479342 L 13.723193 12.479342 L 13.723193 9.4619548 L 16.590202 9.4619548 L 16.590202 10.216431 L 16.590202 11.724866 L 16.590202 12.479342 C 16.590202 12.889723 16.509802 13.281843 16.348873 13.656014 C 16.191963 14.026161 15.978683 14.346082 15.709119 14.615645 C 15.439555 14.885209 15.117457 15.09849 14.743286 15.2554 C 14.373139 15.416331 13.982679 15.496729 13.572298 15.496729 C 13.161917 15.496729 12.769797 15.416329 12.395626 15.2554 C 12.025479 15.09849 11.705558 14.885209 11.435994 14.615645 C 11.16643 14.346082 10.951489 14.026161 10.790556 13.656014 C 10.633641 13.281843 10.554911 12.889723 10.554911 12.479342 L 10.554911 9.4619548 z M 19.004008 9.4619548 L 25.039299 9.4619548 L 25.039299 11.320756 L 23.029602 11.320756 L 23.029602 11.622546 L 25.039299 11.622546 L 25.039299 13.336137 L 23.029602 13.336137 L 23.029602 13.637927 L 25.039299 13.637927 L 25.039299 15.496729 L 19.004008 15.496729 L 19.004008 9.4619548 z M 28.962056 9.4619548 L 33.487878 9.4619548 L 33.487878 12.479342 L 31.979443 12.479342 C 32.393848 12.479342 32.747691 12.628099 33.041394 12.925826 C 33.339121 13.21953 33.487878 13.573889 33.487878 13.988293 C 33.487878 14.402697 33.339121 14.75654 33.041394 15.050244 C 32.747691 15.347971 32.393848 15.496729 31.979443 15.496729 C 31.951283 15.496729 31.922864 15.495044 31.894694 15.491044 L 31.894694 15.496729 L 27.453105 15.496729 L 27.453105 12.479342 L 28.962056 12.479342 C 28.547652 12.479342 28.191115 12.332762 27.893388 12.039058 C 27.599684 11.741331 27.453105 11.384794 27.453105 10.97039 C 27.453105 10.555986 27.599684 10.202142 27.893388 9.9084391 C 28.191115 9.6107121 28.547652 9.4619548 28.962056 9.4619548 z M 35.902201 9.4619548 L 41.936975 9.4619548 L 41.936975 12.479342 L 39.927279 12.479342 L 39.927279 15.496729 L 37.911898 15.496729 L 37.911898 12.479342 L 35.902201 12.479342 L 35.902201 9.4619548 z M 44.351298 9.4619548 L 50.386072 9.4619548 L 50.386072 12.328446 L 48.376375 12.328446 L 48.376375 12.630237 L 50.386072 12.630237 L 50.386072 15.496729 L 44.351298 15.496729 L 44.351298 12.630237 L 46.360994 12.630237 L 46.360994 12.328446 L 44.351298 12.328446 L 44.351298 9.4619548 z M 55.817782 9.4619548 C 56.364956 9.4619548 56.869734 9.5965015 57.332418 9.8660645 C 57.795102 10.135629 58.160978 10.502021 58.430542 10.964705 C 58.700106 11.427389 58.835168 11.932167 58.835168 12.479342 C 58.835168 13.026516 58.700106 13.531294 58.430542 13.993978 C 58.160978 14.456662 57.795102 14.823055 57.332418 15.092619 C 56.869734 15.362183 56.364956 15.496729 55.817782 15.496729 C 55.270607 15.496729 54.765313 15.362183 54.302629 15.092619 C 53.839945 14.823055 53.474068 14.456662 53.204504 13.993978 C 52.934941 13.531294 52.799878 13.026516 52.799878 12.479342 C 52.799878 11.932167 52.934941 11.427389 53.204504 10.964705 C 53.474068 10.502021 53.839945 10.135629 54.302629 9.8660645 C 54.765313 9.5965015 55.270607 9.4619548 55.817782 9.4619548 z M 60.555477 9.4619548 L 63.572864 11.471651 L 63.572864 9.4619548 L 66.590251 9.4619548 L 66.590251 11.471651 L 66.590251 13.487032 L 66.590251 15.496729 L 63.572864 13.487032 L 63.572864 15.496729 L 60.555477 15.496729 L 60.555477 13.487032 L 60.555477 11.471651 L 60.555477 9.4619548 z M 70.513009 9.4619548 L 75.039347 9.4619548 L 75.039347 12.479342 L 73.530396 12.479342 C 73.9448 12.479342 74.299159 12.628099 74.592863 12.925826 C 74.89059 13.21953 75.039347 13.573889 75.039347 13.988293 C 75.039347 14.402697 74.89059 14.75654 74.592863 15.050244 C 74.299159 15.347971 73.9448 15.496729 73.530396 15.496729 C 73.502236 15.496729 73.474333 15.495044 73.446163 15.491044 L 73.446163 15.496729 L 69.004574 15.496729 L 69.004574 12.479342 L 70.513009 12.479342 C 70.098605 12.479342 69.742584 12.332762 69.444857 12.039058 C 69.151154 11.741331 69.004574 11.384794 69.004574 10.97039 C 69.004574 10.555986 69.151154 10.202142 69.444857 9.9084391 C 69.742584 9.6107121 70.098605 9.4619548 70.513009 9.4619548 z M 80.298458 9.4619548 L 86.333748 9.4619548 L 86.333748 11.320756 L 84.324052 11.320756 L 84.324052 11.622546 L 86.333748 11.622546 L 86.333748 13.487032 L 84.324052 13.487032 L 84.324052 15.496729 L 80.298458 15.496729 L 80.298458 9.4619548 z M 88.747555 9.4619548 L 90.762419 9.4619548 L 90.816679 9.4619548 L 90.829081 9.4619548 L 90.840967 9.4619548 L 90.852852 9.4619548 L 90.859054 9.4619548 L 90.870939 9.4619548 L 90.883341 9.4619548 L 90.895227 9.4619548 L 90.907113 9.4619548 L 90.919515 9.4619548 L 90.925199 9.4619548 L 90.937602 9.4619548 L 90.949487 9.4619548 L 90.961373 9.4619548 L 90.973775 9.4619548 L 90.985661 9.4619548 L 90.991862 9.4619548 L 91.003748 9.4619548 L 91.015633 9.4619548 L 91.028035 9.4619548 L 91.039921 9.4619548 L 91.046122 9.4619548 L 91.058008 9.4619548 L 91.069893 9.4619548 L 91.082296 9.4619548 L 91.094181 9.4619548 L 91.100382 9.4619548 L 91.112268 9.4619548 L 91.12467 9.4619548 L 91.136556 9.4619548 L 91.14224 9.4619548 L 91.154643 9.4619548 L 91.166528 9.4619548 L 91.178931 9.4619548 L 91.184615 9.4619548 L 91.197017 9.4619548 L 91.208903 9.4619548 L 91.220789 9.4619548 L 91.22699 9.4619548 L 91.238875 9.4619548 L 91.251278 9.4619548 L 91.263163 9.4619548 L 91.269364 9.4619548 L 91.28125 9.4619548 L 91.293136 9.4619548 L 91.299337 9.4619548 L 91.311222 9.4619548 L 91.323625 9.4619548 L 91.33551 9.4619548 L 91.341711 9.4619548 L 91.353597 9.4619548 L 91.365483 9.4619548 L 91.371684 9.4619548 L 91.383569 9.4619548 L 91.395972 9.4619548 L 91.401656 9.4619548 L 91.414058 9.4619548 L 91.425944 9.4619548 L 91.432145 9.4619548 L 91.444031 9.4619548 L 91.449715 9.4619548 L 91.462118 9.4619548 L 91.474003 9.4619548 L 91.480204 9.4619548 L 91.49209 9.4619548 L 91.504492 9.4619548 L 91.510177 9.4619548 L 91.522062 9.4619548 L 91.528263 9.4619548 L 91.540149 9.4619548 L 91.552551 9.4619548 L 91.558236 9.4619548 L 91.570638 9.4619548 L 91.576322 9.4619548 L 91.588725 9.4619548 L 91.60061 9.4619548 L 91.606812 9.4619548 L 91.618697 9.4619548 L 91.624898 9.4619548 L 91.636784 9.4619548 L 91.642985 9.4619548 L 91.654871 9.4619548 L 91.666756 9.4619548 L 91.672957 9.4619548 L 91.684843 9.4619548 L 91.691044 9.4619548 L 91.70293 9.4619548 L 91.709131 9.4619548 L 91.721016 9.4619548 L 91.727218 9.4619548 L 91.739103 9.4619548 L 91.745304 9.4619548 L 91.75719 9.4619548 L 91.763391 9.4619548 L 91.775277 9.4619548 L 91.781478 9.4619548 L 91.793363 9.4619548 L 91.799565 9.4619548 L 91.81145 9.4619548 L 91.817651 9.4619548 L 91.829537 9.4619548 L 91.835738 9.4619548 L 91.847624 9.4619548 L 91.853825 9.4619548 L 91.86571 9.4619548 L 91.871912 9.4619548 L 91.877596 9.4619548 L 91.889998 9.4619548 L 91.895683 9.4619548 L 91.908085 9.4619548 L 91.91377 9.4619548 L 91.926172 9.4619548 L 91.931856 9.4619548 L 91.938057 9.4619548 L 91.949943 9.4619548 L 91.956144 9.4619548 L 91.96803 9.4619548 L 91.974231 9.4619548 L 91.979915 9.4619548 L 91.992318 9.4619548 L 91.998002 9.4619548 L 92.010404 9.4619548 L 92.016606 9.4619548 L 92.022807 9.4619548 L 92.034692 9.4619548 L 92.040894 9.4619548 L 92.046578 9.4619548 L 92.05898 9.4619548 L 92.064665 9.4619548 L 92.070866 9.4619548 L 92.082751 9.4619548 L 92.088953 9.4619548 L 92.095154 9.4619548 L 92.107039 9.4619548 L 92.113241 9.4619548 L 92.118925 9.4619548 L 92.125126 9.4619548 L 92.137012 9.4619548 L 92.143213 9.4619548 L 92.148897 9.4619548 L 92.1613 9.4619548 L 92.166984 9.4619548 L 92.173185 9.4619548 L 92.179386 9.4619548 L 92.191272 9.4619548 L 92.196956 9.4619548 L 92.203158 9.4619548 L 92.209359 9.4619548 L 92.221244 9.4619548 L 92.227445 9.4619548 L 92.23313 9.4619548 L 92.239331 9.4619548 L 92.245532 9.4619548 L 92.257418 9.4619548 L 92.263102 9.4619548 L 92.269303 9.4619548 L 92.275505 9.4619548 L 92.281189 9.4619548 L 92.293591 9.4619548 L 92.299276 9.4619548 L 92.305477 9.4619548 L 92.311678 9.4619548 L 92.317362 9.4619548 L 92.323564 9.4619548 L 92.329248 9.4619548 L 92.34165 9.4619548 L 92.347335 9.4619548 L 92.353536 9.4619548 L 92.359737 9.4619548 L 92.365422 9.4619548 L 92.371623 9.4619548 L 92.377307 9.4619548 L 92.383508 9.4619548 L 92.389709 9.4619548 L 92.395394 9.4619548 L 92.407796 9.4619548 L 92.413481 9.4619548 L 92.419682 9.4619548 L 92.425366 9.4619548 L 92.431567 9.4619548 L 92.437769 9.4619548 L 92.443453 9.4619548 L 92.449654 9.4619548 L 92.455339 9.4619548 L 92.46154 9.4619548 L 92.467741 9.4619548 L 92.473425 9.4619548 L 92.479626 9.4619548 L 92.485311 9.4619548 L 92.491512 9.4619548 L 92.497713 9.4619548 L 92.503398 9.4619548 L 92.509599 9.4619548 L 92.5158 9.4619548 L 92.521484 9.4619548 L 92.527686 9.4619548 L 92.53337 9.4619548 L 92.539571 9.4619548 L 92.545772 9.4619548 L 92.551457 9.4619548 L 92.557658 9.4619548 L 92.563342 9.4619548 L 92.569543 9.4619548 L 92.575745 9.4619548 L 92.581429 9.4619548 L 92.58763 9.4619548 L 92.593315 9.4619548 L 92.599516 9.4619548 L 92.605717 9.4619548 L 92.611401 9.4619548 L 92.617603 9.4619548 L 92.623804 9.4619548 L 92.629488 9.4619548 L 92.635689 9.4619548 L 92.641374 9.4619548 L 92.647575 9.4619548 L 92.653776 9.4619548 L 92.65946 9.4619548 L 92.665662 9.4619548 L 92.671346 9.4619548 L 92.677547 9.4619548 L 92.683748 9.4619548 L 92.689433 9.4619548 L 92.695634 9.4619548 L 92.701835 9.4619548 L 92.708036 9.4619548 L 92.713721 9.4619548 L 92.719922 9.4619548 L 92.726123 9.4619548 L 92.732324 9.4619548 L 92.738009 9.4619548 L 92.74421 9.4619548 L 92.749894 9.4619548 L 92.756095 9.4619548 L 92.762297 9.4619548 L 92.767981 9.4619548 L 92.774182 9.4619548 C 93.136284 9.4619548 93.472082 9.552205 93.781873 9.733256 C 94.091671 9.910283 94.335034 10.153647 94.512061 10.463444 C 94.693108 10.773241 94.783879 11.10955 94.783879 11.471651 C 94.783879 11.918242 94.653172 12.318557 94.391654 12.672611 C 94.130136 13.022642 93.792161 13.262167 93.377763 13.390914 L 94.783879 15.496729 L 90.758285 15.496729 L 88.748588 15.496729 L 88.748588 13.487032 L 88.748588 11.471651 L 88.747555 9.4619548 z M 97.196651 9.4619548 L 103.23194 9.4619548 L 103.23194 11.320756 L 101.22225 11.320756 L 101.22225 11.622546 L 103.23194 11.622546 L 103.23194 13.336137 L 101.22225 13.336137 L 101.22225 13.637927 L 103.23194 13.637927 L 103.23194 15.496729 L 97.196651 15.496729 L 97.196651 9.4619548 z M 108.66313 9.4619548 C 109.07351 9.4619548 109.46397 9.5423547 109.83412 9.7032837 C 110.20829 9.8601947 110.52987 10.073475 110.79944 10.343038 C 111.069 10.612602 111.28228 10.934183 111.43919 11.308354 C 111.60009 11.678501 111.68052 12.068961 111.68052 12.479342 C 111.68052 13.195497 111.45355 13.830981 110.99891 14.386202 L 108.87449 12.267985 L 108.66313 12.479342 L 110.79375 14.609961 L 111.68052 15.496729 L 110.92656 15.496729 L 109.41761 15.496729 L 108.66313 15.496729 C 108.25275 15.496729 107.86063 15.416329 107.48646 15.2554 C 107.11631 15.09849 106.79639 14.885209 106.52683 14.615645 C 106.25726 14.346082 106.04181 14.026161 105.88088 13.656014 C 105.72402 13.281843 105.64575 12.889723 105.64575 12.479342 C 105.64575 12.068961 105.72395 11.678501 105.88088 11.308354 C 106.04181 10.934183 106.25726 10.612602 106.52683 10.343038 C 106.79639 10.073475 107.11631 9.8601947 107.48646 9.7032837 C 107.86063 9.5423497 108.25275 9.4619548 108.66313 9.4619548 z M 114.09484 9.4619548 L 116.96134 9.4619548 L 116.96134 12.479342 L 117.26313 12.479342 L 117.26313 9.4619548 L 120.12962 9.4619548 L 120.12962 10.216431 L 120.12962 11.724866 L 120.12962 12.479342 C 120.12962 12.889723 120.04922 13.281843 119.88829 13.656014 C 119.73138 14.026161 119.5181 14.346082 119.24854 14.615645 C 118.97897 14.885209 118.65739 15.09849 118.28322 15.2554 C 117.91307 15.416331 117.52261 15.496729 117.11223 15.496729 C 116.70184 15.496729 116.30973 15.416329 115.93556 15.2554 C 115.56541 15.09849 115.2455 14.885209 114.97593 14.615645 C 114.70637 14.346082 114.4909 14.026161 114.32997 13.656014 C 114.1731 13.281843 114.09484 12.889723 114.09484 12.479342 L 114.09484 9.4619548 z M 122.54394 9.4619548 L 128.57872 9.4619548 L 128.57872 11.320756 L 126.56902 11.320756 L 126.56902 11.622546 L 128.57872 11.622546 L 128.57872 13.336137 L 126.56902 13.336137 L 126.56902 13.637927 L 128.57872 13.637927 L 128.57872 15.496729 L 122.54394 15.496729 L 122.54394 9.4619548 z M 130.99252 9.4619548 L 134.01042 11.471651 L 134.01042 9.4619548 L 137.02781 9.4619548 L 137.02781 11.471651 L 137.02781 13.487032 L 137.02781 15.496729 L 134.01042 13.487032 L 134.01042 15.496729 L 130.99252 15.496729 L 130.99252 13.487032 L 130.99252 11.471651 L 130.99252 9.4619548 z M 139.44162 9.4619548 L 145.47691 9.4619548 L 145.47691 12.479342 L 143.46721 12.479342 L 143.46721 15.496729 L 141.45131 15.496729 L 141.45131 12.479342 L 139.44162 12.479342 L 139.44162 9.4619548 z M 147.89071 9.4619548 L 151.91631 9.4619548 L 151.91631 13.487032 L 153.92601 13.487032 L 153.92601 15.496729 L 151.91631 15.496729 L 149.90041 15.496729 L 147.89071 15.496729 L 147.89071 9.4619548 z M 156.33981 9.4619548 L 159.2063 9.4619548 L 159.2063 11.471651 L 159.50809 11.471651 L 159.50809 9.4619548 L 162.37458 9.4619548 L 162.37458 10.216431 L 162.37458 11.724866 L 162.37458 12.479342 C 162.37458 12.889723 162.29418 13.281843 162.13326 13.656014 C 161.97635 14.026161 161.76306 14.346082 161.4935 14.615645 C 161.22393 14.885209 160.90236 15.09849 160.52819 15.2554 C 160.15804 15.416331 159.76759 15.496729 159.3572 15.496729 L 156.33981 15.496729 L 156.33981 12.630237 L 158.34951 12.630237 L 158.34951 12.328446 L 156.33981 12.328446 L 156.33981 9.4619548 z M 171.08051 9.4619548 C 171.49089 9.4619548 171.88083 9.5423547 172.25098 9.7032837 C 172.62515 9.8601947 172.94725 10.073475 173.21682 10.343038 C 173.48639 10.612602 173.69966 10.934183 173.85657 11.308354 C 174.01747 11.678501 174.0979 12.068961 174.0979 12.479342 L 174.0979 15.496729 L 171.23141 15.496729 L 171.23141 12.479342 L 170.92962 12.479342 L 170.92962 15.496729 L 168.06313 15.496729 L 168.06313 12.479342 C 168.06313 12.068961 168.14133 11.678501 168.29825 11.308354 C 168.45918 10.934183 168.67465 10.612602 168.94421 10.343038 C 169.21378 10.073475 169.53369 9.8601947 169.90384 9.7032837 C 170.27801 9.5423497 170.67013 9.4619548 171.08051 9.4619548 z M 178.02066 9.4619548 L 182.547 9.4619548 L 182.547 12.479342 L 181.03805 12.479342 C 181.45245 12.479342 181.8068 12.628099 182.10051 12.925826 C 182.39824 13.21953 182.547 13.573889 182.547 13.988293 C 182.547 14.402697 182.39824 14.75654 182.10051 15.050244 C 181.8068 15.347971 181.45245 15.496729 181.03805 15.496729 C 181.00985 15.496729 180.98191 15.495044 180.95381 15.491044 L 180.95381 15.496729 L 176.51171 15.496729 L 176.51171 12.479342 L 178.02066 12.479342 C 177.60626 12.479342 177.25024 12.332762 176.95251 12.039058 C 176.6588 11.741331 176.51171 11.384794 176.51171 10.97039 C 176.51171 10.555986 176.6588 10.202142 176.95251 9.9084391 C 177.25024 9.6107121 177.60626 9.4619548 178.02066 9.4619548 z M 184.9608 9.4619548 L 186.9705 9.4619548 L 188.9864 9.4619548 L 190.99609 9.4619548 L 188.9864 12.479342 L 190.99609 15.496729 L 188.9864 15.496729 L 186.9705 15.496729 L 184.9608 15.496729 L 184.9608 9.4619548 z M 193.4099 9.4619548 L 199.44519 9.4619548 L 199.44519 11.320756 L 197.43549 11.320756 L 197.43549 11.622546 L 199.44519 11.622546 L 199.44519 13.336137 L 197.43549 13.336137 L 197.43549 13.637927 L 199.44519 13.637927 L 199.44519 15.496729 L 193.4099 15.496729 L 193.4099 9.4619548 z M 201.859 9.4619548 L 204.87638 9.4619548 C 205.28676 9.4619548 205.67722 9.5423547 206.04737 9.7032837 C 206.42153 9.8601947 206.74312 10.073475 207.01269 10.343038 C 207.28225 10.612602 207.49553 10.934183 207.65244 11.308354 C 207.81337 11.678501 207.89377 12.068961 207.89377 12.479342 C 207.89377 12.889723 207.81337 13.281843 207.65244 13.656014 C 207.49553 14.026161 207.28225 14.346082 207.01269 14.615645 C 206.74312 14.885209 206.42153 15.09849 206.04737 15.2554 C 205.67722 15.416334 205.28676 15.496729 204.87638 15.496729 L 201.859 15.496729 L 201.859 12.479342 L 201.859 9.4619548 z M 5.1071818 18.873783 C 5.5175625 18.873783 5.9080225 18.954183 6.2781698 19.115112 C 6.6523405 19.272023 6.9744383 19.485304 7.2440023 19.754867 C 7.5135656 20.024431 7.726329 20.346011 7.8832397 20.720182 C 8.0441728 21.090329 8.1250854 21.480789 8.1250854 21.89117 L 8.1250854 24.908557 L 5.258077 24.908557 L 5.258077 21.89117 L 4.9562866 21.89117 L 4.9562866 24.908557 L 2.0897949 24.908557 L 2.0897949 21.89117 C 2.0897949 21.480789 2.1685289 21.090329 2.3254395 20.720182 C 2.4863728 20.346011 2.7013141 20.024431 2.9708781 19.754867 C 3.2404414 19.485304 3.5603621 19.272023 3.9305094 19.115112 C 4.30468 18.954182 4.6968011 18.873783 5.1071818 18.873783 z M 12.047843 18.873783 L 16.573665 18.873783 L 16.573665 21.89117 L 15.06523 21.89117 C 15.47963 21.89117 15.833474 22.039928 16.127181 22.337655 C 16.424908 22.631359 16.573665 22.985718 16.573665 23.400122 C 16.573665 23.814526 16.424908 24.168369 16.127181 24.462073 C 15.833474 24.7598 15.47963 24.908557 15.06523 24.908557 C 15.03703 24.908557 15.008611 24.906873 14.980481 24.902873 L 14.980481 24.908557 L 10.538892 24.908557 L 10.538892 21.89117 L 12.047843 21.89117 C 11.633443 21.89117 11.276902 21.744074 10.979175 21.45037 C 10.685468 21.152643 10.538892 20.796622 10.538892 20.382218 C 10.538892 19.967814 10.685468 19.613971 10.979175 19.320268 C 11.276902 19.022541 11.633442 18.873783 12.047843 18.873783 z M 18.987988 18.873783 L 20.997685 18.873783 L 23.013066 18.873783 L 25.022762 18.873783 L 23.013066 21.89117 L 25.022762 24.908557 L 23.013066 24.908557 L 20.997685 24.908557 L 18.987988 24.908557 L 18.987988 18.873783 z M 27.437085 18.873783 L 33.471859 18.873783 L 33.471859 20.732585 L 31.462162 20.732585 L 31.462162 21.034375 L 33.471859 21.034375 L 33.471859 22.747965 L 31.462162 22.747965 L 31.462162 23.049756 L 33.471859 23.049756 L 33.471859 24.908557 L 27.437085 24.908557 L 27.437085 18.873783 z M 35.885665 18.873783 L 38.903569 18.873783 C 39.313949 18.873783 39.703893 18.954183 40.07404 19.115112 C 40.448207 19.272023 40.770305 19.485304 41.039872 19.754867 C 41.309432 20.024431 41.522713 20.346011 41.679626 20.720182 C 41.840559 21.090329 41.920955 21.480789 41.920955 21.89117 C 41.920955 22.301551 41.840555 22.693672 41.679626 23.067843 C 41.522713 23.43799 41.309432 23.757911 41.039872 24.027474 C 40.770305 24.297038 40.448207 24.510318 40.07404 24.667228 C 39.703893 24.828162 39.313949 24.908557 38.903569 24.908557 L 35.885665 24.908557 L 35.885665 21.89117 L 35.885665 18.873783 z M 50.626367 18.873783 C 51.036747 18.873783 51.427208 18.954183 51.797355 19.115112 C 52.171522 19.272023 52.493621 19.485304 52.763188 19.754867 C 53.032748 20.024431 53.245512 20.346011 53.402425 20.720182 C 53.563355 21.090329 53.644271 21.480789 53.644271 21.89117 C 53.644271 22.607325 53.416782 23.24281 52.962142 23.798031 L 50.837724 21.679814 L 50.626367 21.89117 L 52.756986 24.021273 L 53.644271 24.908557 L 52.889795 24.908557 L 51.380843 24.908557 L 50.626367 24.908557 C 50.21598 24.908557 49.823862 24.828167 49.449695 24.667228 C 49.079548 24.510318 48.75963 24.297038 48.490063 24.027474 C 48.220503 23.757911 48.005558 23.43799 47.844625 23.067843 C 47.687715 22.693672 47.60898 22.301551 47.60898 21.89117 C 47.60898 21.480789 47.68771 21.090329 47.844625 20.720182 C 48.005558 20.346011 48.220503 20.024431 48.490063 19.754867 C 48.75963 19.485304 49.079548 19.272023 49.449695 19.115112 C 49.823862 18.954182 50.21598 18.873783 50.626367 18.873783 z M 56.058077 18.873783 L 58.924569 18.873783 L 58.924569 21.89117 L 59.226359 21.89117 L 59.226359 18.873783 L 62.092851 18.873783 L 62.092851 19.628259 L 62.092851 21.136694 L 62.092851 21.89117 C 62.092851 22.301551 62.012451 22.693672 61.851522 23.067843 C 61.694609 23.43799 61.481335 23.757911 61.211768 24.027474 C 60.942208 24.297038 60.620625 24.510318 60.246452 24.667228 C 59.876305 24.828159 59.485844 24.908557 59.075464 24.908557 C 58.665084 24.908557 58.272965 24.828167 57.898792 24.667228 C 57.528645 24.510318 57.20872 24.297038 56.93916 24.027474 C 56.669593 23.757911 56.454138 23.43799 56.293205 23.067843 C 56.136295 22.693672 56.058077 22.301551 56.058077 21.89117 L 56.058077 18.873783 z M 64.507174 18.873783 L 70.541947 18.873783 L 70.541947 20.732585 L 68.532251 20.732585 L 68.532251 21.034375 L 70.541947 21.034375 L 70.541947 22.747965 L 68.532251 22.747965 L 68.532251 23.049756 L 70.541947 23.049756 L 70.541947 24.908557 L 64.507174 24.908557 L 64.507174 18.873783 z M 74.464705 18.873783 L 78.991044 18.873783 L 78.991044 21.89117 L 77.482609 21.89117 C 77.897009 21.89117 78.250853 22.039928 78.54456 22.337655 C 78.842287 22.631359 78.991044 22.985718 78.991044 23.400122 C 78.991044 23.814526 78.842287 24.168369 78.54456 24.462073 C 78.250853 24.7598 77.897009 24.908557 77.482609 24.908557 C 77.454409 24.908557 77.42599 24.906873 77.39786 24.902873 L 77.39786 24.908557 L 72.95627 24.908557 L 72.95627 21.89117 L 74.464705 21.89117 C 74.050305 21.89117 73.694281 21.744074 73.396554 21.45037 C 73.102847 21.152643 72.95627 20.796622 72.95627 20.382218 C 72.95627 19.967814 73.102847 19.613971 73.396554 19.320268 C 73.694281 19.022541 74.050304 18.873783 74.464705 18.873783 z M 81.40485 18.873783 L 87.440141 18.873783 L 87.440141 21.89117 L 85.430444 21.89117 L 85.430444 24.908557 L 83.414547 24.908557 L 83.414547 21.89117 L 81.40485 21.89117 L 81.40485 18.873783 z M 89.853947 18.873783 L 95.889237 18.873783 L 95.889237 21.740275 L 93.879541 21.740275 L 93.879541 22.042065 L 95.889237 22.042065 L 95.889237 24.908557 L 89.853947 24.908557 L 89.853947 22.042065 L 91.863643 22.042065 L 91.863643 21.740275 L 89.853947 21.740275 L 89.853947 18.873783 z M 101.32043 18.873783 C 101.8676 18.873783 102.3729 19.00833 102.83558 19.277893 C 103.29827 19.547457 103.66414 19.91385 103.93371 20.376534 C 104.20327 20.839218 104.33833 21.343995 104.33833 21.89117 C 104.33833 22.438344 104.20327 22.943122 103.93371 23.405806 C 103.66414 23.86849 103.29827 24.234883 102.83558 24.504447 C 102.3729 24.774011 101.8676 24.908557 101.32043 24.908557 C 100.77326 24.908557 100.26848 24.774011 99.805794 24.504447 C 99.343106 24.234883 98.97723 23.86849 98.70767 23.405806 C 98.438103 22.943122 98.303044 22.438344 98.303044 21.89117 C 98.303044 21.343995 98.438103 20.839218 98.70767 20.376534 C 98.97723 19.91385 99.343106 19.547457 99.805794 19.277893 C 100.26848 19.00833 100.77326 18.873783 101.32043 18.873783 z M 106.05864 18.873783 L 109.07603 20.88348 L 109.07603 18.873783 L 112.09342 18.873783 L 112.09342 20.88348 L 112.09342 22.898861 L 112.09342 24.908557 L 109.07603 22.898861 L 109.07603 24.908557 L 106.05864 24.908557 L 106.05864 22.898861 L 106.05864 20.88348 L 106.05864 18.873783 z M 116.01617 18.873783 L 120.54251 18.873783 L 120.54251 21.89117 L 119.03356 21.89117 C 119.44797 21.89117 119.80233 22.039928 120.09603 22.337655 C 120.39376 22.631359 120.54251 22.985718 120.54251 23.400122 C 120.54251 23.814526 120.39376 24.168369 120.09603 24.462073 C 119.80233 24.7598 119.44797 24.908557 119.03356 24.908557 C 119.00536 24.908557 118.97743 24.906873 118.94933 24.902873 L 118.94933 24.908557 L 114.50722 24.908557 L 114.50722 21.89117 L 116.01617 21.89117 C 115.60177 21.89117 115.24575 21.744074 114.94802 21.45037 C 114.65431 21.152643 114.50722 20.796622 114.50722 20.382218 C 114.50722 19.967814 114.65431 19.613971 114.94802 19.320268 C 115.24575 19.022541 115.60177 18.873783 116.01617 18.873783 z M 125.83418 18.873783 L 131.86895 18.873783 L 131.86895 20.732585 L 129.85926 20.732585 L 129.85926 21.034375 L 131.86895 21.034375 L 131.86895 22.898861 L 129.85926 22.898861 L 129.85926 24.908557 L 125.83418 24.908557 L 125.83418 18.873783 z M 134.28328 18.873783 L 136.29504 18.873783 L 136.3493 18.873783 L 136.3617 18.873783 L 136.37359 18.873783 L 136.38599 18.873783 L 136.39219 18.873783 L 136.40459 18.873783 L 136.41648 18.873783 L 136.42837 18.873783 L 136.44077 18.873783 L 136.45265 18.873783 L 136.45834 18.873783 L 136.47022 18.873783 L 136.48263 18.873783 L 136.49451 18.873783 L 136.50691 18.873783 L 136.5188 18.873783 L 136.525 18.873783 L 136.53689 18.873783 L 136.54877 18.873783 L 136.56117 18.873783 L 136.57306 18.873783 L 136.57926 18.873783 L 136.59115 18.873783 L 136.60355 18.873783 L 136.61543 18.873783 L 136.62784 18.873783 L 136.63352 18.873783 L 136.64592 18.873783 L 136.65781 18.873783 L 136.66969 18.873783 L 136.6759 18.873783 L 136.68778 18.873783 L 136.70018 18.873783 L 136.71207 18.873783 L 136.71827 18.873783 L 136.73016 18.873783 L 136.74256 18.873783 L 136.75444 18.873783 L 136.76013 18.873783 L 136.77201 18.873783 L 136.78442 18.873783 L 136.7963 18.873783 L 136.8025 18.873783 L 136.81439 18.873783 L 136.82627 18.873783 L 136.83247 18.873783 L 136.84436 18.873783 L 136.85676 18.873783 L 136.86865 18.873783 L 136.87433 18.873783 L 136.88622 18.873783 L 136.89862 18.873783 L 136.90482 18.873783 L 136.91722 18.873783 L 136.92911 18.873783 L 136.93531 18.873783 L 136.9472 18.873783 L 136.9596 18.873783 L 136.96528 18.873783 L 136.97769 18.873783 L 136.98389 18.873783 L 136.99629 18.873783 L 137.00817 18.873783 L 137.01438 18.873783 L 137.02626 18.873783 L 137.03815 18.873783 L 137.04383 18.873783 L 137.05572 18.873783 L 137.06192 18.873783 L 137.07432 18.873783 L 137.08621 18.873783 L 137.09189 18.873783 L 137.10429 18.873783 L 137.10998 18.873783 L 137.12186 18.873783 L 137.13375 18.873783 L 137.13995 18.873783 L 137.15184 18.873783 L 137.15752 18.873783 L 137.16941 18.873783 L 137.17561 18.873783 L 137.18749 18.873783 L 137.19989 18.873783 L 137.2061 18.873783 L 137.21798 18.873783 L 137.22367 18.873783 L 137.23555 18.873783 L 137.24175 18.873783 L 137.25364 18.873783 L 137.25984 18.873783 L 137.27172 18.873783 L 137.27741 18.873783 L 137.28929 18.873783 L 137.2955 18.873783 L 137.30738 18.873783 L 137.31358 18.873783 L 137.32547 18.873783 L 137.33115 18.873783 L 137.34304 18.873783 L 137.34924 18.873783 L 137.36112 18.873783 L 137.36681 18.873783 L 137.37869 18.873783 L 137.3849 18.873783 L 137.39678 18.873783 L 137.40298 18.873783 L 137.40867 18.873783 L 137.42107 18.873783 L 137.42727 18.873783 L 137.43967 18.873783 L 137.44587 18.873783 L 137.45828 18.873783 L 137.46396 18.873783 L 137.47016 18.873783 L 137.48256 18.873783 L 137.48825 18.873783 L 137.50065 18.873783 L 137.50685 18.873783 L 137.51305 18.873783 L 137.52494 18.873783 L 137.53062 18.873783 L 137.54251 18.873783 L 137.54871 18.873783 L 137.55439 18.873783 L 137.5668 18.873783 L 137.573 18.873783 L 137.5792 18.873783 L 137.59108 18.873783 L 137.59677 18.873783 L 137.60297 18.873783 L 137.61486 18.873783 L 137.62106 18.873783 L 137.62674 18.873783 L 137.63914 18.873783 L 137.64535 18.873783 L 137.65103 18.873783 L 137.65723 18.873783 L 137.66912 18.873783 L 137.67532 18.873783 L 137.681 18.873783 L 137.6934 18.873783 L 137.69961 18.873783 L 137.70529 18.873783 L 137.71149 18.873783 L 137.72389 18.873783 L 137.73009 18.873783 L 137.73578 18.873783 L 137.74198 18.873783 L 137.75387 18.873783 L 137.76007 18.873783 L 137.76575 18.873783 L 137.77195 18.873783 L 137.77764 18.873783 L 137.78952 18.873783 L 137.79572 18.873783 L 137.80192 18.873783 L 137.80761 18.873783 L 137.81381 18.873783 L 137.82621 18.873783 L 137.8319 18.873783 L 137.8381 18.873783 L 137.8443 18.873783 L 137.84998 18.873783 L 137.85618 18.873783 L 137.86239 18.873783 L 137.87479 18.873783 L 137.88047 18.873783 L 137.88667 18.873783 L 137.89236 18.873783 L 137.89856 18.873783 L 137.90476 18.873783 L 137.91045 18.873783 L 137.91665 18.873783 L 137.92233 18.873783 L 137.92853 18.873783 L 137.94093 18.873783 L 137.94714 18.873783 L 137.95282 18.873783 L 137.95902 18.873783 L 137.96471 18.873783 L 137.97091 18.873783 L 137.97711 18.873783 L 137.98279 18.873783 L 137.98899 18.873783 L 137.99519 18.873783 L 138.00088 18.873783 L 138.00708 18.873783 L 138.01276 18.873783 L 138.01897 18.873783 L 138.02517 18.873783 L 138.03085 18.873783 L 138.03705 18.873783 L 138.04274 18.873783 L 138.04894 18.873783 L 138.05514 18.873783 L 138.06082 18.873783 L 138.06702 18.873783 L 138.07271 18.873783 L 138.07891 18.873783 L 138.08511 18.873783 L 138.0908 18.873783 L 138.097 18.873783 L 138.1032 18.873783 L 138.10888 18.873783 L 138.11508 18.873783 L 138.12077 18.873783 L 138.12697 18.873783 L 138.13317 18.873783 L 138.13885 18.873783 L 138.14506 18.873783 L 138.15074 18.873783 L 138.15694 18.873783 L 138.16314 18.873783 L 138.16883 18.873783 L 138.17503 18.873783 L 138.18071 18.873783 L 138.18691 18.873783 L 138.19312 18.873783 L 138.1988 18.873783 L 138.205 18.873783 L 138.21069 18.873783 L 138.21689 18.873783 L 138.22309 18.873783 L 138.22877 18.873783 L 138.23497 18.873783 L 138.24117 18.873783 L 138.24686 18.873783 L 138.25306 18.873783 L 138.25874 18.873783 L 138.26495 18.873783 L 138.27115 18.873783 L 138.27683 18.873783 L 138.28303 18.873783 L 138.28872 18.873783 L 138.29492 18.873783 L 138.30112 18.873783 L 138.3068 18.873783 C 138.6689 18.873783 139.00469 18.964034 139.31449 19.145085 C 139.62428 19.322112 139.86765 19.565476 140.04468 19.875273 C 140.22576 20.18507 140.3165 20.521379 140.3165 20.88348 C 140.3165 21.330071 140.1858 21.730386 139.92428 22.08444 C 139.66277 22.434471 139.32479 22.673479 138.91038 22.802226 L 140.3165 24.908557 L 136.29091 24.908557 L 134.28173 24.908557 L 134.28173 22.898861 L 134.28173 20.88348 L 134.28328 18.873783 z M 142.73186 18.873783 L 148.76715 18.873783 L 148.76715 20.732585 L 146.75745 20.732585 L 146.75745 21.034375 L 148.76715 21.034375 L 148.76715 22.747965 L 146.75745 22.747965 L 146.75745 23.049756 L 148.76715 23.049756 L 148.76715 24.908557 L 142.73186 24.908557 L 142.73186 18.873783 z M 154.19834 18.873783 C 154.60872 18.873783 154.99918 18.954183 155.36933 19.115112 C 155.7435 19.272023 156.06559 19.485304 156.33516 19.754867 C 156.60473 20.024431 156.818 20.346011 156.97491 20.720182 C 157.13581 21.090329 157.21624 21.480789 157.21624 21.89117 C 157.21624 22.607325 156.98874 23.24281 156.53411 23.798031 L 154.4097 21.679814 L 154.19834 21.89117 L 156.32896 24.021273 L 157.21624 24.908557 L 156.46177 24.908557 L 154.95282 24.908557 L 154.19834 24.908557 C 153.78796 24.908557 153.39584 24.828167 153.02167 24.667228 C 152.65152 24.510318 152.33161 24.297038 152.06204 24.027474 C 151.79248 23.757911 151.57753 23.43799 151.4166 23.067843 C 151.25973 22.693672 151.18095 22.301551 151.18095 21.89117 C 151.18095 21.480789 151.25965 21.090329 151.4166 20.720182 C 151.57753 20.346011 151.79248 20.024431 152.06204 19.754867 C 152.33161 19.485304 152.65152 19.272023 153.02167 19.115112 C 153.39584 18.954182 153.78796 18.873783 154.19834 18.873783 z M 159.63005 18.873783 L 162.49654 18.873783 L 162.49654 21.89117 L 162.79833 21.89117 L 162.79833 18.873783 L 165.66482 18.873783 L 165.66482 19.628259 L 165.66482 21.136694 L 165.66482 21.89117 C 165.66482 22.301551 165.58442 22.693672 165.42349 23.067843 C 165.26658 23.43799 165.05331 23.757911 164.78374 24.027474 C 164.51418 24.297038 164.19259 24.510318 163.81842 24.667228 C 163.44827 24.828159 163.05782 24.908557 162.64744 24.908557 C 162.23706 24.908557 161.84493 24.828167 161.47076 24.667228 C 161.10061 24.510318 160.78069 24.297038 160.51113 24.027474 C 160.24156 23.757911 160.02662 23.43799 159.86569 23.067843 C 159.70882 22.693672 159.63005 22.301551 159.63005 21.89117 L 159.63005 18.873783 z M 168.07915 18.873783 L 174.11392 18.873783 L 174.11392 20.732585 L 172.10422 20.732585 L 172.10422 21.034375 L 174.11392 21.034375 L 174.11392 22.747965 L 172.10422 22.747965 L 172.10422 23.049756 L 174.11392 23.049756 L 174.11392 24.908557 L 168.07915 24.908557 L 168.07915 18.873783 z M 176.52824 18.873783 L 179.54563 20.88348 L 179.54563 18.873783 L 182.56302 18.873783 L 182.56302 20.88348 L 182.56302 22.898861 L 182.56302 24.908557 L 179.54563 22.898861 L 179.54563 24.908557 L 176.52824 24.908557 L 176.52824 22.898861 L 176.52824 20.88348 L 176.52824 18.873783 z M 184.97734 18.873783 L 191.01211 18.873783 L 191.01211 21.89117 L 189.00242 21.89117 L 189.00242 24.908557 L 186.98652 24.908557 L 186.98652 21.89117 L 184.97734 21.89117 L 184.97734 18.873783 z M 193.42592 18.873783 L 197.45151 18.873783 L 197.45151 22.898861 L 199.46121 22.898861 L 199.46121 24.908557 L 197.45151 24.908557 L 195.43562 24.908557 L 193.42592 24.908557 L 193.42592 18.873783 z M 201.87502 18.873783 L 204.74151 18.873783 L 204.74151 20.88348 L 205.0433 20.88348 L 205.0433 18.873783 L 207.91031 18.873783 L 207.91031 19.628259 L 207.91031 21.136694 L 207.91031 21.89117 C 207.91031 22.301551 207.82991 22.693672 207.66898 23.067843 C 207.51207 23.43799 207.29879 23.757911 207.02922 24.027474 C 206.75966 24.297038 206.43756 24.510318 206.06339 24.667228 C 205.69324 24.828159 205.30278 24.908557 204.8924 24.908557 L 201.87502 24.908557 L 201.87502 22.042065 L 203.88471 22.042065 L 203.88471 21.740275 L 201.87502 21.740275 L 201.87502 18.873783 z " />
  </g>
</svg>
